<svg id="レイヤー_1" data-name="レイヤー 1" xmlns="http://www.w3.org/2000/svg" width="80" height="66" viewBox="0 0 80 66">
  <defs>
    <style>
      .cls-1 {
        fill: #daa896;
      }

      .cls-2 {
        fill: none;
        stroke: #efead1;
        stroke-linecap: round;
        stroke-linejoin: round;
        stroke-width: 1.417px;
      }
    </style>
  </defs>
  <path class="cls-1" d="M40,65.71,27.1,55.019c-.92-.763-1.961-1.6-3.064-2.486C12.1,42.933,3.486,35.312,1.273,24.624a20.228,20.228,0,0,1,38.452-11.95c.087.093.179.189.275.288.1-.1.188-.2.275-.288A20.229,20.229,0,0,1,78.728,24.623c-2.213,10.688-10.829,18.31-22.76,27.91-1.1.888-2.143,1.724-3.063,2.486Z"/>
  <path class="cls-2" d="M23.156,25.748s1.416,3.9,5,3.9c3.345,0,5-3.9,5-3.9"/>
  <path class="cls-2" d="M47.448,25.748s1.415,3.9,5,3.9c3.345,0,5-3.9,5-3.9"/>
  <path class="cls-2" d="M32.406,39.8a8.494,8.494,0,0,0,7.521,4.457c5.031,0,7.521-4.457,7.521-4.457"/>
</svg>
